<svg xmlns="http://www.w3.org/2000/svg" width="1440" height="1569" fill="none"><path fill="#89B99A" fill-rule="evenodd" d="M53.62 1405.65c2.71-.02 5.49 2.67 7.443 4.26-5.083-3.4-13.133-3.28-18.96-4.09-5.672-.8-11.302-2-16.777-3.72-.12-.03-12.26-4.01-8.149-6.29 11.372-6.38 25.455 10.41 36.442 9.84Zm-78.908-52.32c2.137 5.24 11.6 30.91 2.403 32.74-7.319 1.46-13.598-14.16-13.992-19.38-.649-8.69-.252-17.36-1.463-26.04 5.095 3.9 10.513 6.39 13.052 12.68Zm-89.377 158.73c-3.509 4.33-7.056 8.67-10.874 12.73 4.01-4.97 7.836-9.96 12.344-14.5l-1.471 1.77h.001Zm235.838-200.16c-1.925-2.48-9.445.55-11.598 1.04-5.905 1.33-12.297 2.52-17.695.18-4.631-1.16 2.865-9.2 4.038-12.27.823-2.15 2.54-7.61 1.113-9.81-3.056-4.7-9.455.81-12.64 2.99-4.666 3.18-6.597 5.24-5.79-.6.869-6.28 7.452-16.86.792-22.43-5.674-4.74-14.491 4.26-17.918 7.88-6.464 6.8-9.464 14.5-10.843 23.67-.322 2.13-2.796 14.77-4.968 12.54-4.333-5.57-.903-13.74-4.325-19.74-1.945-3.41-4.623-5.1-6.258-8.94-1.615-3.79-3.246-10.58-8.468-10.99-3.315-.26-5.505 2.48-6.052 5.22-1.737 6.41-.43 12.18-.543 18.67-.083 4.75-3.206 8.33-2.045 13.22 1.872 7.45 4.313 15.26 5.576 23.02.397 2.43 1.739 13.51-3.024 11.34-2.682-1.22-2.404-11.58-2.587-13.4-.437-4.35-.373-8.69-2.992-12.46-1.501-2.16-3.99-2.99-5.15-4.69-3.423-5.01-3.191-13.51-6.018-19.02-2.537-4.94-9.258-16.93-15.159-18.1-8.08-1.6-5.04 9.4-4.513 14.22.586 5.34 1.483 10.21 1.01 15.42-.416 4.6-.086 8.33 1.677 12.79 3.257 8.26 8.165 15.38 12.283 22.9a.35.35 0 0 0-.03-.08c2.312 4.41 4.236 9.89 4.02 14.99-.362 8.56-3.324 4.2-5.924-1.62-3.923-8.78-6.48-18.17-10.356-26.95-1.38-3.13-3.036-6.3-5.915-8.34-1.932-1.37-4.322-1.04-5.821-1.86-5.218-2.88-24.428-35.44-32.494-25.73-4.356 5.24 6.459 16.44 8.739 20.36 3.641 6.26 7.505 10.58 7.136 18.01-2.117-1.96-5.03-.94-6.965-2.5-2.3-1.86-2.945-5.8-4.022-8.38-2.961-7.09-6.447-14.07-11.08-20.18-14.138-18.66-11.76 9.55-10.36 18.86.27 1.79.583 4.07.862 6.11.722 5.33-.519 6.2-1.282 10.91-1.297 8.03 8.164 18.62 13.053 24.37 1.507 1.77 24.757 30.58 14.564 30.34-5.14-.12-13.804-14.73-16.203-19.22-3.687-6.9-6.22-20.68-13.88-24.26-2.405-1.12-4.391.06-6.62-.82-5.208-2.07-8.742-10.22-12.508-14.04-7.666-7.76-17.085-6.68-10.672 5.91 2.54 4.99 3.799 8.31 5.359 13.74 1.78 6.19 7.367 9.38 9.94 14.8 2.124 4.48-1.183 2.08-.991 7.41.16 4.43 7.029 9.28 10.261 11.74 4.49 3.42 24.73 14.89 20.762 21.81-3.617 6.3-15.416-3.21-18.571-6.1-7.892-7.23-11.04-17-15.48-26.37-2.163-4.56-4.639-10.11-8.18-13.8-3.105-3.24-6.638-3.68-10.485-5.36-4.48-1.95-24.225-12.33-23.315.22.611 8.43 12.362 12.52 13.83 20.57-5.285-2.36-16.348-13.06-22.646-7.44-6.079 5.44 5.984 17.17 9.659 21.6 2.255 2.72 17.694 14.96 17.434 19.54-.272 4.79-5.812 3.07-9.014 2.44-5.475-1.09-54.502-13.15-54.284-3.16.167 7.75 19.019 5.12 21.455 9.52.895 1.61-1.054 2.4-1.399 4.12-1.262 6.32.831 8.84 7.464 9.54-6.299 15.09 14.556 7.08 21.566 4.67 4.776-1.64 25.096-9.07 26.503 1.13.473 3.43-5.266 8.83-6.244 12.18-1.885 6.47 2.866 10.44 9.107 8.25 4.294-1.5 8.195-5.31 10.95-8.83 1.583-2.02 4.381-8.67 7.023-9.13-.264 10.95 6.124 5.29 11.95.58 4.358-3.52 15.214-13.09 21.691-9.28-5.072 7.04-12.001 12.64-17.541 19.29-6.063 7.28-12.373 14.08-19.366 20.96-13.263 13.04-26.556 27.26-38.224 41.69-5.708 7.05-11.889 13.77-18.007 20.47-2.209 2.41-16.073 13.25-11.215 17.65 6.573 5.95 17.981-16.56 22.672-19.17 22.302-25.36 46.07-49.45 67.687-75.3-.89 2.92.085 11.14 4.494 11-1.04 2.4-4.156 6.05-3.432 8.79 1.607 6.08 4.063.61 6.34.96 3.892.61.697 7.63-.023 10.49-3.361 13.32-3.992 27.89-4.858 41.59-.474 7.52 5.85 28.35 16.528 19.43 5.332-4.44 5.883-15.58 6.222-21.81.216-3.93-1.58-14.85 1.148-18.25 4.517 2.39 9.937 13.12 12.837 16.97 6.13 8.14 11.493 13.31 22.144 14 25.305 1.66-5.34-27.08-2.286-29.01 2.15-1.35 16.965 11.15 18.925 12.64 4.344 3.31 17.574 11.38 22.431 4.61 4.074-5.68-6.346-15.19-9.438-18.85-2.593-3.06-4.53-7.26-7.776-10.35-2.67-2.55-6.248-3.99-8.893-6.41-2.75-2.52-2.91-6.14-5.976-9.02-3.44-3.23-8.118-5.93-11.905-8.88-6.33-4.92-15.286-11.31-16.028-20.24 14.46 1.79 24.335 17.54 34.207 26.68 4.938 4.58 10.752 10.45 17.903 8.89 2.872-.63-.203-1.19 3.642-1.45.863-.06 2.032.44 2.868.64 5.994 1.41 11.736 3.6 17.68 5.16 3.687.97 15.516 5.29 18.821 1.74 5.993-6.43-19.883-22.6-24.457-26.18-3.46-2.71-7.624-5.03-10.89-7.84-2.998-2.58-4.006-6.03-8.038-7.93-5.22-2.46-11.289-3.3-16.73-5.15-7.321-2.48-13.415-6.13-19.508-10.81-2.524-1.95-8.65-6.12-7.325-9.63 2.131-5.64 11.74 1.57 14.461 3.11 8.06 4.58 15.604 11.87 25.572 14.88 10.311 3.11 15.607 13.24 25.101 17.78 3.43 1.64 5.36 1.79 8.977 1.13 4.023-.74 5.93-1.21 10.657-.01 4.284 1.1 24.955 7.81 23.383-1.83-.51-3.13-5.044-4.42-7.342-5.7-5.064-2.82-9.98-5.93-15.111-8.62-3.258-1.71-7.399-2.89-10.066-5.55-2.53-2.51-3.095-5.08-6.734-6.72-4.9-2.2-12.266-1.85-16.556-4.83-4.093-2.85-7.328-6.94-12.014-9.57-3.73-2.08-24.859-9.91-24.28-13.4 1.17-7.1 24.967 6.47 26.8 7.47 11.679 6.34 23.133 14.81 35.122 20.78 4.03 2.01 7.157 1.26 10.87 1.81 4.931.72 10.083 4.11 15.09 5.28 3.992.94 14.431 3.38 12.394-3.57-1.47-5.02-11.02-9.35-15.013-12.39-4.515-3.44-8.719-7.15-13.609-10.06-1.051-.63-3.37-1.42-4.14-2.28-2.13-2.4-.72-6.05-3.283-8.75 2.691 2.59 5.345 3.93 8.997 3.97.953.01 2.79-1.01 3.986-1.16 3.611-.45 7.864.76 11.48 1.17 5.08.57 30.678-.16 17.492-9.13-5.636-3.84-11.974-6.75-18.25-9.32-4.932-2.02-11.39-3.51-15.546-6.9-4.307-3.52-5.097-5.34-11.358-6.27-6.434-.95-15.512-.77-20.571-5.41-10.304-9.46 24.014-3.11 27.663-2.18 7.372 1.86 15.342 3.32 22.88 1.65 8.404-1.85 15.364-5.84 24.203-6.24 3.942-.18 16.855.22 16.629-6.11-.221-6.23-14.664-6.65-18.496-7.42-3.96-.79-8.459-1.06-12.265-2.22-3.453-1.05-6.09-3.28-9.454-4.58-9.54-3.69-17.646 1.01-27.158.57-5.022-.23-7.416-2.21-2.167-5.79 2.832-1.94 7.381-2.12 10.72-3.06 5.022-1.41 9.966-3.21 14.924-4.84 6.69-2.2 44.257-13.98 34.889-25.98M1430.59 1046.19c-1.12 1.86-.4 4.87-.1 6.86-.27-4.89 3.09-10.39 4.9-14.74 1.76-4.23 3.23-8.6 4.28-13.07.02-.1 2.23-10.08-1.02-8.17-9.02 5.24-3.2 21.77-8.06 29.12Zm-3.89-75.652c2.74 3.602 16.55 20.552 21.56 14.956 3.98-4.453-4.21-15.126-7.64-17.518-5.72-3.977-11.85-7.227-17.33-11.588.61 5.099.12 9.844 3.41 14.15Zm145.66 2.874c4.41-.658 8.84-1.344 13.19-2.323-5.05.745-10.05 1.353-15.01 2.619l1.82-.297v.001Zm-233.81 81.258c-.93-2.34 4.22-6.29 5.43-7.58 3.33-3.53 6.74-7.45 7.33-12.12 1.09-3.67-7.49-1.76-10.08-2.2-1.82-.31-6.28-1.34-7.21-3.22-1.99-4.02 4.41-6.19 7.2-7.5 4.09-1.92 6.3-2.42 1.95-4.23-4.68-1.96-14.64-1.72-15.76-8.57-.95-5.83 8.83-8.26 12.71-9.15 7.32-1.691 13.84-.631 20.71 2.14 1.61.65 11.31 4.07 10.66 1.67-2.07-5.246-9.09-6.202-11.83-10.999-1.55-2.726-1.63-5.259-3.6-7.945-1.95-2.652-5.96-6.536-4.12-10.303 1.17-2.39 3.95-2.785 6.06-2.052 5.12 1.407 8.56 4.653 13.07 7.214 3.31 1.872 7.04 1.171 9.93 3.957 4.37 4.317 8.75 9.175 13.58 13.198 1.51 1.261 8.59 6.68 9.04 2.522.25-2.343-7-6.361-8.17-7.227-2.82-2.069-5.84-3.788-7.36-7.125-.88-1.912-.44-3.966-1.13-5.454-2.06-4.397-8.01-7.691-10.65-11.877-2.37-3.756-7.88-13.256-6.28-17.8 2.19-6.221 8.52.342 11.62 2.665 3.44 2.572 6.43 5.17 10.21 6.96 3.33 1.582 5.76 3.323 8.12 6.354 4.36 5.599 7.26 11.875 10.76 17.768-.02-.017-.03-.035-.05-.055 2.1 3.387 5.09 6.937 8.69 8.863 6.04 3.227 4.24-.585 1.29-4.743-4.44-6.271-9.86-11.848-14.33-18.086-1.59-2.222-3.1-4.653-3.33-7.466-.16-1.886 1.05-3.399 1.09-4.769.14-4.764-14.45-31.233-4.48-32.851 5.38-.873 8.69 11.132 10.46 14.297 2.82 5.053 4.22 9.472 9.49 12.236-.49-2.258 1.4-3.849 1.11-5.818-.34-2.341-2.79-4.387-4.13-6.177-3.67-4.921-7.06-10.159-9.38-15.836-7.08-17.326 11.36-4.228 17.21.521 1.12.912 2.56 2.055 3.85 3.074 3.37 2.666 4.48 2.162 8.03 3.552 6.06 2.367 9.49 13.189 11.46 18.895.61 1.761 10.97 29.491 14.95 22.367 2.01-3.592-4.52-15.501-6.63-18.977-3.24-5.344-11.7-12.689-11.04-19.422.2-2.115 1.83-3.004 2.12-4.901.7-4.429-3.47-10.176-4.56-14.322-2.23-8.439 2.35-14.493 8.41-4.955 2.4 3.775 4.17 5.995 7.27 9.273 3.54 3.741 3.46 8.888 6.14 12.864 2.22 3.285 1.92.031 5.51 2.33 2.98 1.91 3.52 8.612 3.9 11.841.53 4.485.18 23.095 6.56 23.17 5.81.068 4.07-11.927 3.36-15.277-1.76-8.379-7.2-14.516-11.84-21.382-2.27-3.347-5.07-7.305-6.18-11.248-.96-3.456.17-6.072.59-9.404.48-3.879 1.37-21.709 9.64-15.982 5.56 3.847 3.58 13.606 8.53 17.889.53-4.6-2.34-16.575 4.1-18.63 6.22-1.983 9.38 11.098 10.94 15.432.95 2.659 3.08 18.272 6.35 19.956 3.4 1.757 4.48-2.759 5.35-5.224 1.48-4.214 13.14-42.912 19.92-38.703 5.27 3.263-4.21 15.193-2.18 18.656.75 1.274 2.08.25 3.41.712 4.86 1.696 5.75 4.164 3.52 9.018 12.96 1.79-1.05 12.912-5.56 16.766-3.07 2.626-16.46 13.614-10.02 18.726 2.17 1.718 8.22-.044 10.93.644 5.22 1.329 6.02 6.217 1.97 9.63-2.78 2.349-6.99 3.493-10.54 3.961-2.03.271-7.75-.503-9.14 1.13 7.64 4.267 1.14 6.37-4.47 8.475-4.19 1.574-15.2 5.17-15.22 11.181 6.91-.637 13.59-3.137 20.42-4.256 7.48-1.221 14.73-2.809 22.31-4.834 14.39-3.842 29.59-7.228 44.26-9.413 7.18-1.069 14.33-2.6 21.43-4.096 2.56-.542 15.66-5.697 16.72-.559 1.42 6.949-18.72 5.667-22.43 7.842-26.54 5.068-52.8 11.668-79.4 16.066 2.37.571 7.64 4.584 5.75 7.567 2.07.257 5.85-.407 7.45 1.207 3.52 3.573-1.24 3.045-1.93 4.759-1.16 2.93 4.97 3.58 7.23 4.24 10.54 3.1 20.82 8.58 30.61 13.55 5.37 2.73 17.13 15.55 6.65 19.29-5.24 1.87-13.12-2.27-17.55-4.57-2.8-1.45-9.58-7.13-13.03-6.63-.2 4.09 4.99 12.19 6.45 15.75 3.11 7.53 4.48 13.33.62 20.95-9.16 18.11-16.47-14.69-19.04-13.36-1.8.93.77 16.22 1 18.18.5 4.34.67 16.73-5.97 17.33-5.56.5-7.86-10.54-9.12-14.16-1.06-3.03-3.16-6.07-3.97-9.57-.66-2.87-.2-5.92-.79-8.73-.61-2.92-3.04-4.5-3.77-7.78-.82-3.69-.78-8.01-1.26-11.82-.81-6.36-1.57-15.13-7.41-19.27-4.65 10.7 2.16 23.9 4.44 34.42 1.14 5.26 2.81 11.66-1.18 15.95-1.6 1.73-.73-.62-2.48 1.92-.39.57-.52 1.58-.72 2.24-1.47 4.71-2.31 9.55-3.65 14.28-.83 2.94-2.68 12.85-6.47 13.69-6.87 1.51-7.46-22.89-8.06-27.5-.46-3.49-.36-7.3-.96-10.69-.56-3.12-2.52-5.21-2.18-8.76.43-4.6 2.32-9.13 3.26-13.63 1.27-6.05 1.24-11.74.5-17.84-.31-2.53-.69-8.44-3.64-8.96-4.75-.82-3.7 8.73-3.75 11.23-.13 7.42 1.82 15.58-.17 23.68-2.06 8.37 2.76 16.13 2.02 24.52-.27 3.03-.95 4.43-2.88 6.65-2.15 2.47-3.25 3.6-4.34 7.34-1 3.4-4.79 20.38-10.79 15.38-1.94-1.63-.99-5.28-.93-7.38.12-4.64-.02-9.29.22-13.92.15-2.94 1.02-6.27.28-9.19-.7-2.77-2.24-4.2-1.88-7.37.47-4.28 3.72-9.21 3.41-13.38-.29-3.98-1.79-7.87-1.69-12.17.08-3.42 3.3-21.16.66-22.18-5.36-2.07-5.72 19.84-5.78 21.51-.38 10.63.78 21.96.01 32.65-.26 3.6-2.05 5.45-3.18 8.23-1.51 3.69-1.28 8.62-2.51 12.55-.98 3.13-3.55 11.32-7.51 7.09-2.86-3.05-1.95-11.39-2.41-15.38-.53-4.51-1.38-8.92-1.38-13.47-.01-.98.39-2.9.11-3.78-.78-2.44-3.87-2.95-4.68-5.82.68 2.91.53 5.29-.94 7.82-.38.66-1.83 1.51-2.42 2.27-1.78 2.31-2.68 5.73-3.87 8.39-1.67 3.74-12.6 21.08-13.41 8.35-.34-5.44.24-10.99 1.02-16.37.62-4.22 2.23-9.27 1.58-13.52-.67-4.39-1.6-5.68.31-10.37 1.97-4.82 5.79-11 4.66-16.38-2.32-10.94-11.92 15.29-12.77 18.18-1.72 5.84-3.96 11.93-8.18 16.45-4.7 5.04-10.28 8.22-14.15 14.14-1.73 2.65-6.71 11.71-10.98 8.99-4.2-2.69 1.39-12.81 2.43-15.77 1.06-3.05 2.71-6.26 3.46-9.35.68-2.81.22-5.54.7-8.38 1.34-8.08 7.88-11.75 11.45-18.49 1.89-3.56 1.5-6.01-3.11-3.85-2.48 1.17-4.46 4.23-6.47 6.15-3.01 2.89-6.26 5.56-9.4 8.32-4.24 3.72-27.65 24.83-32.09 13.5Z" clip-rule="evenodd"/><path fill="#02362C" fill-rule="evenodd" d="M1617.91 1116.17c-17.64-31-41.3-59.71-64.07-87.05 6.73 1.84 15.6.4 21.74-2.65 6.89-3.42 10.37-9.39 13.16-16.27.4-.98 2.99-11.054 4.88-10.512 3.48 1.002 4.48 23.212 4.86 25.922 1.33 9.69 3.4 19.18 5.58 28.72 4.68 20.55 9.77 41.16 13.85 61.84Zm-75.34-105.24c-4.92.35-8.64-6.61-11.81-10.21 5.31-.2 27.98-6.471 30.69-1.059 4.4 8.799-14.4 10.939-18.88 11.269Zm-110.62-167.819c-.02 2.937-.02 14.269-4.6 10.755-3.1-2.38-4.79-13.039-5.75-16.308-1.97-6.662-4.98-14.869-4.63-21.899.65-13.306 9.38-4.228 11.37 2.87 2.19 7.825 3.65 16.425 3.61 24.582Zm35.01 58.29c5.79-3.628 3.46 3.143 1.28 6.372-6.12 9.086-7.47-1.44-1.28-6.372Zm-13.04-31.118c-1.23-6.601-.62-15.559 1.26-21.87 1.48-4.957 6.22-9.574 9.12-3.24 2.42 5.258-2.15 19.08-4.58 24.253-1.98 4.207-4.69 7.782-5.8.857Zm-25.15 2.022c1.08 12.668-9.95 17.305-9.59 2.842.23-8.849 7.65-15.385 9.59-2.842Zm23.32 76.344c.34 5.257-10.71 23.648-11.51 13.5-.23-2.894 10.92-18.237 11.51-13.5Zm-32.4-17.729c-3.78 2.451-14.16 10.638-18.09 8.982-6.28-2.649.89-10.072 3.68-11.981 3.05-2.087 11.4-7.197 15.6-6.556 7.71 1.18 2.71 6.785-1.19 9.555Zm-56.75-75.747c-9.38 3.995-12.67-7.165-14.7-13.829-1.32-4.36-5.99-13.476-1.08-16.587 8.82-5.6 18.67 23.191 15.78 30.416Zm31.06 1.313c-1.43-4.472-2.54-9.04-3.95-13.52-.83-2.664-5.2-12.046-4.67-14.276 1.66-7.075 7.38-3.542 10.7 1.645 3.41 5.325 6.98 16.433 6.62 22.543-.33 5.667-5.63 12.253-8.7 3.608Zm-17.29-47.029c-2.46-7.78 2.86-14.32 8.96-5.652 6.9 9.802-3.58 20.165-8.96 5.652Zm13.49 137.512c.36 7.115-23.76 17.84-29.21 14.562-7.18-4.314 7.56-9.682 11.66-11.812 3.46-1.796 16.54-10.906 17.55-2.75Zm-42.75-10.607c-6.12 1.723-12.39 4.117-18.69 4.981-8.65 1.184-8.57-3.669-2.1-8.768 5.65-4.456 16.23-5.533 22.98-8.231 5.39-2.156 21.02-14.505 24.93-10.681 8.79 8.616-21.34 21.015-27.12 22.699Zm1.64 27.729c.24 9.672-25.37 12.912-31.1 13.477 3.84-2.734 29.34-26.814 31.1-13.477Zm-48.47-48.768c-17.36-.578.08-13.215 5.93-15.549 4.24-1.697 14.24-5.466 18.56-1.913 11.33 9.324-20.03 17.632-24.49 17.462Zm1.97-35.348c.39-5.996 29.28-15.031 30.92-9.544 1.28 4.321-29.54 22.126-30.92 9.544Zm41.56 7.234c11.46-7.852 26.97-.474 9.79 8.631-3.37 1.784-12.2 6.603-15.94 3.856-5.28-3.879 3.11-10.529 6.15-12.487Zm316.16 26.398c-2.84-5.03-6.93-12.057-11.64-7.313-1.83 1.84-3.71 9.526-4.95 12.412-4.33 10.101-8.94 21.379-18.08 28.145-5.47 4.048-24.53 10.585-19.75-1.771 4.08-10.542 17.59-19.876 25.74-27.523 3.77-3.546 12.74-10.824 14.7-15.968 1.5-3.922-2.1-13.151-8.58-11.067-2.93.947-3.31 9.531-4.39 11.976-1.69 3.859-4.69 6.884-7.34 10.092-4.21 5.088-8.65 12.546-15.24 14.942-7.93 2.886-10.38-1.755-6.3-8.873 3.98-6.956 12.99-11.434 18.5-17.144 2.74-2.842 11.37-11.154 9.28-15.403-4.57-9.252-10.94 4.282-13.21 7.033-1.78 2.152-12.57 16.042-15.94 13.388-4.04-3.187 5.02-16.028 6.69-18.771 3.52-5.789 5.06-5.464.6-8.556-2.54-1.77-7.85-3.287-10.67-2.887-6.9.98-13.97 7.354-21.09 9.045-2.95.701-12.99.543-14.2 5.056-1.88 6.945 28.33 23.59 12.41 27.379-12.3 2.922-23.86-16.124-33.97-8.288-15.98 12.387 9.39 19.924 19.14 22.492 4.37 1.153 18.76 1.653 16.66 9.381-1.71 6.283-13.64 4.897-18.24 4.125-8.72-1.458-16.61-5.678-24.75-8.813-2.2-.843-11.04-5.638-13.69-4.606-3.8 1.485-8.4 16.309-6.19 19.804 2.73 4.303 17.71 2.802 22.77 2.912 8.56.182 19.05-.127 26.35 5.203 8.05 5.884-1.9 6.802-7.4 6.564-11.87-.516-23.99-4.713-35.62-6.988-4.05-.796-10.09-2.957-14.12-2.403-6.1.843-4.82 1.266-2.31 6.25 5.6 11.123 11.28 12.375 23.66 13.238 5.65.391 30.35-2.859 32.3 4.676-6.08 4.779-20.8 2.165-27.96 2.064-5.25-.076-13.74 1.132-18.3-1.402-6.21-3.458-14.05-16.351-18.6-21.526-8.07-9.179-16.01-18.312-24.85-26.794 9.64 1.367 18.67 4.421 28.43 2.009 10.67-2.639 20.9-9.769 22.48-21.24.57-4.198-.13-8.506-.43-12.692-.09-1.337-.03-2.711-.19-4.045-.7-5.798-.22-7.687-4.2-3.49-4.53 4.775-7.68 15.646-15.47 17.667-8.63 2.24-4-4.226-.5-8.002 8.67-9.325 18.14-17.438 19.58-31.245.78-7.53.34-15.793-1.02-23.303-1.31-7.218-2.61-6.998-5.05-1.085-5.3 12.825-13.55 23.391-24.53 31.967-2.1 1.645-6.82 5.67-9.99 3.392-2.88-2.06-.79-5.957-.01-8.903 1.73-6.507 4.21-12.539 6.65-18.794 3.22-8.24 8.83-19.356 9.05-28.23.15-5.763-4.52-8.238-8.64-11.849-4.82-4.225-9.15-8.726-12.89-13.946-2.6-3.636-5.41-9.092-9.34-11.481-6.09-3.711-4.73.919-4.27 5.549.37 3.699 5.72 40.23-2.95 38.353-8.6-1.861-4.98-36.242-6.17-43.788-1.58-9.998-15.47-8.641-23.87-10.466-4.43-.966-8.49-1.471-12.69-3.105-1.59-.618-3.39-3.316-5.18-2.503-4.06 1.843 12.31 16.879 8.06 22.208-7.19 8.997-14.43-14.763-16.49-19.096-1.73-3.645-3.79-7.914-6.21-11.083-3.75-4.892-4.25-3.711-9.76-2.071-5.51 1.64-18.67 1.499-22.83 5.142-4.03 3.524 1.11 6.109 3.89 9.313 2.65 3.032 11.2 13.322 3.99 15.454-2.61.77-12.06-6.922-14.51-8.504-5.19-3.36-4.07-2.595-8.44-1.493-5.07 1.277-10.78 2.917-15.65 4.645-6.12 2.167-7.58 3.196-2.99 7.579 5.37 5.135 13.42 8.228 16.07 15.575 1.29 3.173.44 6.722-3.56 6.785-4.28.069-6.23-5.766-7.87-8.894-2.09-3.958-6-13.268-11.07-14.099-3.17-.52-7.08 3.309-9.77 4.699-1.58.822-8.74 2.957-9.31 5.163-.63 2.422 7.62 7.674 9.85 10.257 5.71 6.59 11.77 14.732 13.93 22.663 1.67 12.948-13.33-2.785-15.69-6.712-2.62-4.354-11.03-26.865-18.57-24.586-2.05.622-3.32 5.62-4.99 7.256-2.06 2.003-4.7 2.809-7.17 4.053-3.66 1.846-7.32 3.69-10.83 5.776-1.08.644-4.03 2.518-4.61 2.942-.45.322-1.42.11-1.96.514-3.67 2.762-5.38 8.35-8.73 11.709-1.5 1.508-8.17 5.623-7.68 7.759.44 1.946 32.22 3.472 36.98 4 3.62.4 18.82-.234 20.68 3.303 1.81 3.46-1.26 4.678-4.25 5.824-7.42 2.843-16.77 3.516-24.57 4.913-5.52.986-28.11 2.391-31.03 7.873-3.03 5.66.65 9.535 4.86 10.311 4.62.854 11.28-1.094 15.79-1.745 3.67-.53 27.12-6.34 28.33-.934 1.31 5.882-26.72 10.817-29.5 11.563-5.3 1.427-14.25 1.682-18.93 4.407-4.19 2.447-2.63 2.731-1.46 6.748 4.02 13.882 5.45 11.168 17.73 8.049 4.69-1.195 10.73-3.33 15.21-.754 5.36 3.072 5.07 6.921.28 9.572-3.29 1.824-10.16 2.254-13.85 2.792-4.31.631-8.68.849-13.03.897-1.27.015-6.87-.914-8.09-.091-4.78 3.23 6.79 20.054 11.79 20.71 2.43.319 6.37-1.336 8.78-1.802 8.41-1.639 16.97-2.507 25.42-4.065 4.75-.876 27.02-7.388 23.03 4.147-2.2 6.371-18.31 9.584-23.66 11.404a233.526 233.526 0 0 1-15.54 4.706c-4.91 1.3-7.76.767-4.5 6.194 3.33 5.523 23.13 22.373 29.35 21.839 5.1-.441 3.21-2.8 8.93.604 2.1 1.253 4.23 3.314 6.05 4.935 7 6.215 14.2 15.178 23.97 16.918 20.89 3.72 49.41-24.225 62.9-37.205 2.67-2.578 12.92-15.227 17.9-12.4 5.24 2.968-3.85 14.779-5.66 17.045-10.05 12.641-22.59 24.77-37.48 31.35-3.97 1.75-15.08 3.43-18.84 6.52-3.73 3.06.09 4.05 4.04 6.66 8.44 5.55 19.72 13.75 30.1 10.34 13.65-4.48 20.98-18.81 28.62-30.05 4.24-6.234 24.09-35.69 24.35-12.593.13 11.503-7.16 24.663-14.99 32.563-1.47 1.48-10.94 6.2-10.74 7.32.3 1.71 5.98 2.44 7.02 2.66 10.05 2.16 40.24 5.11 44.47-7.83 2.91-8.88-.63-23.07-1.88-32.002-.39-2.774-2.33-7.231 1.65-8.114 5.11-1.131 9.49 16.706 9.87 19.536.79 5.81-.09 11.87-2.29 17.86-.97 2.64-3.62 4.99-.16 5.4 1.25.15 8.28-6.53 9.38-7.65 5.6-5.7 5.98-12.12 5.52-19.675-1.25-20.393-10.73-40.275-21.76-57.235 13.19 13.684 25.78 27.852 37.96 42.448 3.04 3.647 5.18 8.108 8.18 11.628 4.34 5.074 9.67 9.204 14.18 14.624-1.33-.14-12.82-3.24-13.15-.1-.31 2.84 9.44 7.26 11.44 8.31 8.99 4.76 12.52 5.18 19.59 13.8 17.58 21.45 33.65 43.7 49.39 66.52 7.69 11.16 15.79 22.15 22.56 33.89 3.4 5.89 6.12 12.19 8.71 18.47 1.78 4.32 4.01 17.36 9.54 18.75 6.44 1.61 4.87-5.48 3.56-8.82-2.95-7.52-5.09-14.85-7.19-22.71-3.42-12.78-5.99-25.77-9.72-38.47-4.65-15.86-8.49-31.84-12.32-47.91-2.5-10.43-4.64-21.03-6.24-31.63-1.1-7.29-.83-15.08-2.78-22.222 7.61 6.852 6.13 19.242 18.83 20.132 9.82.69 16.92-7.24 22.53-14.23 4.58-5.705 11.17-14.324 12.06-21.817 1.06-8.941-6.44-2.546-12.02-.609-3.61 1.252-13.54 6.968-16.51 3.555-4.14-4.776 10.66-10.983 13.52-12.802 6.29-3.996 13.27-8.852 18.06-14.709 1.9-2.315 9.74-27.452 1.04-24.037-1.1.433-2.64 3.947-3.53 5.183-4.13 5.73-8.83 10.9-13.89 15.812-5.52 5.351-17.57 17.944-26.77 15.217 3.73-11.294 19.34-17.182 27.79-24.587 5.42-4.756 10.12-10.011 13.35-16.531 1.6-3.244 5.68-12.33 3.72-15.778Z" clip-rule="evenodd"/><path fill="#012A32" fill-rule="evenodd" d="M147.611 172.497c-12.479-3.974-25.489-4.908-38.421-6.303 4.121-.909 8.582-2.124 12.779-2.59 3.862-.424 6.16 1.167 9.795 2.433 6.488 2.265 13.735 5.017 19.375 7.648a114.12 114.12 0 0 0-3.528-1.188Zm-17.772 4.965c-13.691-2.558-27.708-3.113-41.38-5.788 3.39-1.037 5.31-1.941 8.914-1.598 5.354.508 10.773 1.605 16.006 2.77 7.593 1.691 15.255 3.515 22.653 5.914a147 147 0 0 0-6.193-1.298Zm.658 2.672c-.937.379-4.221-.905-5.282-1.134 1.022.195 4.683 1.376 5.282 1.134Zm-27.259-.281c-10.713-.671-21.556-1.007-32.288-.951 1.927-.72 3.767-1.622 5.644-2.464 5.133-2.301 6.025-1.935 11.15-.423 6.608 1.952 13.379 3.063 20.156 4.193a139.727 139.727 0 0 0-4.662-.355Zm-12.502 6.178c-14.79 1.122-29.38 2.914-44.144 4.567 3.152-1.273 6.183-2.893 9.194-4.458 4.648-2.412 8.217-2.072 13.398-2.074 5.503-.003 10.909.643 16.38 1.265 1.35.155 6.635.588 5.172.7Zm-22.79-11.238c7.898-7.668 16.956-14.813 26.237-20.786 5.89-3.791 12.296-8.072 19.218-4.785-11.448.476-26.404 10.859-33.18 19.758-.325.421-.822.713-1.161 1.127-1.272 1.544.114 1.712-.752 2.662-.101.112-4.726 2-4.112 1.748-3.138 1.294-6.349 2.381-9.491 3.657a138.863 138.863 0 0 1 3.242-3.381Zm44.05-18.372c-7.773 6.5-16.205 9.96-25.566 13.221 8.549-5.498 17.121-9.995 26.518-13.933-.318.237-.636.473-.952.712Zm9.671 2.23c1.62-.519 2.343-.385 2.704 1.539-4.187-.159-6.175.415-10.131 1.375a57.541 57.541 0 0 1 7.427-2.914Zm5.137 1.049c-.291-.528-.416-1.536-.619-2.051 3.108-.051 5.748.606 8.388 2.236-.874.008-7.553.78-7.769-.185ZM.773 231.851c22.72-2.806 44.512-3.539 67.331-1.315-17.191 1.507-34.455 4.962-51.372 8.316-13.582 2.693-27.355 4.147-40.976 6.581 2.524-2.627 4.884-5.41 7.455-7.999 4.466-4.495 11.157-4.782 17.562-5.583Zm78.115 6.691c4.102-.42 8.194-.929 12.274-1.527 4.435-.655 11.509-3.579 15.972-2.698-24.364 7.233-50.693 10.567-75.74 14.643-10.41 1.695-21.01 4.172-31.095 7.315-14.561 4.535-30.985 4.513-44.882 10.884 4.25-4.454 8.905-10.825 13.747-14.447 3.519-2.635 9.356-2.854 13.543-3.407 6.894-.909 13.82-1.616 20.733-2.36 25.159-2.711 50.279-5.771 75.448-8.403Zm-127.41 24.125a189.798 189.798 0 0 0-5.968 6.894c3.51-16.46 3.352-33.818 5.329-50.527 1.118-9.448 2.167-19.002 3.67-28.388 1.33-8.288 1.683-19.58 6.127-26.74 3.316 3.08 5.767 6.349 5.108 10.826-.847 5.758-3.327 11.291-4.48 17.003-1.296 6.419-2.174 12.952-2.975 19.45-1.232 9.994-1.52 20.16-.992 30.208.143 2.825.324 5.647.544 8.467.097 1.23.734 3.327.463 4.477-.664 2.828-4.688 5.962-6.827 8.33Zm24.502-68.531c1.948-9.249 3.135-19.995 7.186-28.665 2.25-4.818 4.412-6.533 7.771-1.329 2.398 3.714-1.369 11.866-2.556 16.534-3.367 13.245-5.145 26.835-7.373 40.303-.581 3.529-.754 7.019-1.13 10.552-.313 2.929-.232 2.755-1.919 4.96-1.085 1.425-2.796 2.635-4.104 3.885-3.43 3.277-6.906 6.511-10.3 9.826 5.164-18.472 8.485-37.32 12.425-56.066Zm254.021 42.008c-3.129-4.161-7.097-7.913-11.156-11.129-5.624-4.459-12.51-7.067-18.126-11.355-4.723-3.61-8.624-8.414-13.451-12.07-7.667-5.802-15.559-10.628-24.538-14.114 11.436 3.902 22.403 8.599 31.563 16.696.774.686 7.484 9.277 8.872 8.456.95-.554-3.076-6.772-3.915-8.221-6.19-10.647-18.893-17.46-28.931-24.299-11.337-7.722-23.716-12.055-36.633-16.326 11.735.648 21.622 3.662 31.452 10.265 4.836 3.245 9.309 7.037 14.293 10.051 4.418 2.672 8.662 5.136 12.475 8.722 4.271 4.019 7.702 8.399 10.536 13.533 1.065 1.932 6.267 13.625 6.407 6.197.07-3.66-4.553-8.875-6.424-11.52-3.155-4.455-6.814-8.468-10.644-12.348-6.515-6.594-12.733-13.438-20.466-18.641-4.398-2.961-9.004-5.306-14.036-6.997-3.886-1.307-7.875-2.246-11.953-2.708-3.872-.438-4.245-.392-7.326-2.392-2.648-1.721-4.908-3.562-7.871-4.789-3.019-1.252-5.589-1.431-7.835-3.139-2.65-2.019-3.678-4.387-7.097-5.651-3.144-1.163-6.36-.907-9.64-.645-10.848.864-21.861 3.614-30.835 10.03-7.931 5.672-13.324 14.723-17.158 23.548-2.117 4.869-.68 4.686-6.365 7.485-5.977 2.944-11.92 5.836-17.734 9.12 9.587-11.917 17.923-25.111 28.434-36.279 5.62-5.965 11.132-12.028 16.751-17.99 1.659-1.757 14.76-14.411 7.402-13.963-1.702.103-4.261 2.378-5.825 3.124-3.12 1.498-6.22 2.826-9.105 4.783-5 3.394-9.082 7.616-13.172 12.007-10.593 11.375-20.141 23.541-25.029 38.476-1.157 3.534-1.58 7.518-3.394 10.761-1.278 2.288-2.778 3.078-5.372 4.768-4.449 2.893-8.773 5.868-12.986 9.103 10.773-15.955 17.722-33.81 26.21-50.989 10.918-22.088 15.913-46.878 25.096-69.7 1.781-4.426 3.95-9.297 6.94-13.065.909-1.146 3.782-2.864 4.033-4.309.663-3.811-1.918-2.788-3.814-1.692-4.645 2.686-9.155 8.742-12.33 12.824-4.619 5.938-9.297 12.38-13.299 18.778-13.785 22.034-22.925 47.04-30.516 71.789-3.572 11.634-7.256 23.46-9.013 35.525-.848 5.825.115 5.981-4.752 9.968-5.083 4.166-9.94 8.586-14.984 12.793 4.596-9.437 7.335-21.14 10.652-31.152 3.472-10.488 7.421-20.818 10.95-31.29 5.74-17.041 10.036-34.489 14.168-51.972a852.786 852.786 0 0 0 6.133-27.96c2.418-12.03 4.877-25.921 10.27-37.018.804-1.65 4.071-9.319-.657-6.677-2.166 1.207-4.733 9.109-5.839 11.24-6.264 12.098-11.54 24.383-16.255 37.16C5.805 115.6-.06 138.815-6.681 161.98c-3.31-4.519-10.183-9.494-16.122-7.571-5.334 1.729-7.958 9.322-9.636 14.079-.186-3.291-4.224-9.429-7.371-9.639-1.789-.12-4.87 1.575-6.366 2.282-3.698 1.748-7.898 3.96-10.205 7.401-4.726 7.058-3.83 18.137-4.67 26.306-2.5 24.364-2.052 47.888.702 72.152.63 5.552 1.39 8.128-1.77 12.504-3.607 5-7.086 9.916-10.638 14.61 1.141-2.174.11-8.819.097-11.137-.037-6.21.026-12.367.349-18.572.661-12.78-.025-25.988-.668-38.776-1.326-26.348-1.206-52.36-.317-78.701.186-5.551.06-11.067.027-16.615-.014-2.29.744-7.901-2.894-6.56-1.057.389-1.834 4.486-2.14 5.525-2.835 9.577-3.724 19.938-5.022 29.774-1.18 8.946-2.257 17.907-3.004 26.897-1.436 17.271-.962 34.042-.875 51.342.074 14.251 1.619 29.744 4.253 42.891 1.236 6.166 3.383 12.828 4.008 19.042.38 3.742-1.81 5.129-4.325 8.527-2.545 3.436-5.058 6.899-7.487 10.418.234-5.392-1.303-10.967-1.663-16.363-.302-4.508-.589-8.993-.995-13.496-.323-3.546-.627-7.096-.94-10.645-1.62-18.269-3.202-36.497-6.191-54.598-4.595-27.796-9.608-56.362-9.422-84.639.037-5.397.211-10.79.273-16.188.046-4.069-.328-8.105-.351-12.168-.013-2.072.931-6.079.24-8.143-1.999-5.974-3.732.701-3.787 3.444-.028 1.446-.115 2.887-.137 4.332-.134 9.079-.915 18.034-1.364 27.103-.643 13.076-.068 26.087.366 39.157.474 14.237.118 28.572 1.648 42.757 1.974 18.283 5.927 36.461 8.408 54.696 1.079 7.941 2.585 15.795 3.402 23.773.762 7.457 3.409 14.787 5.02 21.675l-.008-.528c.624 2.928 1.605 4.391.715 7.078-.627 1.887-2.348 3.871-3.38 5.605-2.197 3.688-4.307 7.419-6.418 11.157 1.871-9.488-.665-21.459-2.672-30.779-2.218-10.312-4.922-20.874-8.087-30.931-2.461-7.821-4.498-15.509-5.241-23.65-.99-10.842-3.939-21.269-5.524-32.01-1.496-10.142-4.014-20.184-6.161-30.223-.484-2.26-2.642-13.07-6.154-8.194-.865 1.203.196 4.398.332 5.642.334 3.08.542 6.111.68 9.203.897 19.631 5.008 39.559 8.23 58.901 2.059 12.358 4.24 24.761 7.249 36.924 2.343 9.47 3.609 19.309 6.208 28.646 1.247 4.479 2.514 9.057 4.506 13.262 1.733 3.66 3.481 4.682 2.869 8.626-.875 5.638-5.676 11.491-7.842 16.95-1.771 4.463-3.578 8.934-5.266 13.428a446.066 446.066 0 0 0-6.637 19.097c-1.201 3.704-3.53 8.485-3.748 12.252-.333 5.722 2.906 4.085 4.607.258 1.144-2.576 2.058-5.347 3.134-7.966 7.896-19.191 15.125-39.767 26.915-56.986 4.918-7.191 18.512-8.924 26.488-11.431 19.188-6.039 39.945-6.835 59.854-9.042 16.054-1.776 31.847-3.409 47.564-7.358 2.295-.575 44.188-12.909 43.137-15.06.587 1.207-45.832 11.537-49.55 11.842-11.656.95-23.277 1.205-34.96 1.699-29.222 1.237-57.965 1.939-84.517 15.746 3.35-5.27 7.358-15.218 13.24-17.259 11.336-3.938 23.283-6.481 34.703-10.321 11.872-3.986 24.063-6.656 36.005-10.35 11.928-3.69 23.83-7.513 35.94-10.616 12.171-3.119 24.745-6.369 37.393-5.968 4.868.155 9.75.586 14.598 1.044 1.83.173 16.4 2.867 8.522-.479-5.102-2.169-11.782-2.336-17.248-3.132-6.267-.91-12.275-1.718-18.61-1.668-13.794.106-27.65 3.34-40.984 6.541-15.957 3.827-32.57 7.625-47.802 13.784-13.96 5.646-27.992 11.065-41.953 16.64 2.538-3.886 5.239-7.655 7.88-11.472 1.283-1.857 2.636-4.87 4.458-6.138 2.78-1.937 8.628-2.44 11.857-3.515 12.99-4.319 26.04-9.392 39.351-12.605 21.403-5.168 43.314-8.373 64.85-12.972 12.569-2.681 25.878-5.047 38.729-4.819 4.834.088 9.675-.088 14.421.933 1.679.36 3.793 1.29 5.523 1.486 5.174.58 1.335-1.909-1.804-2.997-24.879-8.613-52.302-1.727-77.38 1.778-16.585 2.315-32.959 4.677-48.794 10.382-14.591 5.255-28.541 12.264-43.375 16.879 3.888-5.525 7.354-11.246 13.566-14.286 6.874-3.361 14.12-4.823 21.621-6.097 15.597-2.658 31.09-6.06 46.737-8.375 14.375-2.123 28.723-4.007 42.972-6.905 13.874-2.826 27.666-4.477 40.907-9.817 4.192-1.691 9.275-4.622 13.751-4.878 5.802-.331 12.827 1.407 18.516 2.269 13.856 2.095 28.239 4.255 41.048 10.12 12.568 5.756 21.102 14.802 30.723 24.259 3.031 2.984 6.014 6.018 9.036 9.01.673.667 4.69 5.675 5.518 5.739 5.124.384-4.542-9.772-6.21-11.853-11.527-14.381-24.001-26.375-40.959-34.21-14.452-6.678-29.561-11.021-45.321-13.245.04-2.849 11.651-2.991 11.97-5.942.421-3.935-7.704.003-9.314.487-3.058.918-6.032 2.066-9.105 2.935-7.055 1.994-14.862-.462-22.029-1.382-8.642-1.104-17.397-1.828-26.088-2.351-28.77-1.735-56.374-.781-84.319 6.928 5.015-4.392 10.246-8.566 15.546-12.608 2.063-1.573 3.636-3.014 5.974-3.752 3.948-1.247 8.636-.69 12.752-1.093 16.272-1.587 32.47-3.371 48.832-3.873 26.926-.826 55.001 4.007 80.537 12.567 12.457 4.178 24.679 8.241 35.497 15.931 2.504 1.778 4.731 3.819 7.007 5.874.941.849 6.686 7.026 6.978 6.993 2.491-.266-9.062-13.051-10.741-14.684-22.562-21.929-51.837-26.914-81.73-31.317-31.26-4.606-62.636-2.16-93.433 4.789 6.15-3.837 12.194-10.413 19.098-12.644 5.244-1.696 11.9-1.374 17.206-1.918 15.388-1.582 31.517 1.105 46.938 2.197 17.421 1.232 34.344 3.467 51.187 8.108 8.618 2.375 17.011 4.888 25.419 7.972 6.664 2.444 12.101 3.949 17.493 8.415 2.175 1.818 8.645 6.646 12.146 9.928 1.428 1.341 2.907 4.173 4.521 4.847 6.012 2.508-1.967-7.288-3.277-8.988 4.779 2.855 9.24 6.161 13.483 9.681.839.698 1.642 1.231 2.492 1.868.998.751 1.52 2.942 3.228 2.212 1.391-.598.897-2.031.233-2.938Z" clip-rule="evenodd"/></svg>